<svg width="24" height="24" viewBox="0 0 24 24" fill="none" xmlns="http://www.w3.org/2000/svg">
<path d="M14.0001 12C14.0001 10.8954 13.1047 10 12.0001 10C10.8955 10 10.0001 10.8954 10.0001 12C10.0001 13.1046 10.8955 14 12.0001 14C13.1047 14 14.0001 13.1046 14.0001 12ZM16.0001 12C16.0001 14.2091 14.2092 16 12.0001 16C9.79094 16 8.00008 14.2091 8.00008 12C8.00008 9.79086 9.79094 8 12.0001 8C14.2092 8 16.0001 9.79086 16.0001 12Z" fill="#D7D8DB"/>
<path d="M20.5001 6C21.8808 6 23.0001 4.88071 23.0001 3.5C23.0001 2.11929 21.8808 1 20.5001 1C19.1194 1 18.0001 2.11929 18.0001 3.5C18.0001 4.88071 19.1194 6 20.5001 6Z" fill="#FBB36A"/>
<path d="M12.2198 1C12.9657 1 13.6811 1.28098 14.2315 1.7793C14.0814 2.32745 14.0001 2.90421 14.0001 3.5C14.0001 4.75704 14.3578 5.93021 14.9757 6.9248L14.7198 6.77539C14.2644 6.51244 13.8864 6.13489 13.6231 5.67969C13.3599 5.22423 13.2203 4.70672 13.2198 4.18066V4C13.2198 3.73478 13.1144 3.48051 12.9268 3.29297C12.7393 3.10557 12.4849 3 12.2198 3H11.7803C11.5153 3.00005 11.2608 3.10556 11.0733 3.29297C10.8858 3.4805 10.7803 3.73482 10.7803 4V4.18066C10.7798 4.70675 10.6403 5.22422 10.377 5.67969C10.1138 6.1349 9.73575 6.51343 9.28035 6.77637L9.27937 6.77539L8.85261 7.02441L8.84968 7.02637C8.39376 7.28946 7.87607 7.42773 7.34968 7.42773C6.82327 7.42764 6.30558 7.28958 5.84968 7.02637L5.72956 6.96191L5.70027 6.94629C5.47084 6.81401 5.1983 6.77827 4.94245 6.84668C4.71846 6.90662 4.52295 7.04188 4.38874 7.22852L4.33503 7.31152L4.11531 7.69141C3.98385 7.92039 3.94855 8.19212 4.01667 8.44727C4.07655 8.6712 4.21199 8.86674 4.39851 9.00098L4.48152 9.05469L4.53523 9.08789L4.68464 9.1875C5.11379 9.44747 5.47116 9.8098 5.7237 10.2441C5.98685 10.6968 6.12679 11.2108 6.12995 11.7344V12.2461L6.1241 12.4434C6.09561 12.9034 5.96204 13.3518 5.73152 13.7529C5.47084 14.2065 5.09507 14.5827 4.64363 14.8467L4.6446 14.8477L4.49421 14.9375L4.48152 14.9453C4.25235 15.0781 4.08509 15.2969 4.01667 15.5527C3.94855 15.8079 3.98385 16.0796 4.11531 16.3086L4.33406 16.6885C4.4668 16.9177 4.68662 17.0849 4.94245 17.1533C5.1983 17.2217 5.47084 17.186 5.70027 17.0537L5.72956 17.0381L5.84968 16.9736L6.02351 16.8809C6.43513 16.678 6.88902 16.5724 7.34968 16.5723C7.81025 16.5723 8.26427 16.6781 8.67585 16.8809L8.84968 16.9736L8.85261 16.9756L9.27937 17.2236C9.73477 17.4866 10.1138 17.8651 10.377 18.3203C10.6403 18.7758 10.7798 19.2932 10.7803 19.8193V20C10.7803 20.2652 10.8858 20.5195 11.0733 20.707C11.2608 20.8944 11.5153 21 11.7803 21H12.2198C12.4849 21 12.7393 20.8944 12.9268 20.707C13.1144 20.5195 13.2198 20.2652 13.2198 20V19.8193L13.2266 19.6221C13.2572 19.1646 13.3928 18.7188 13.6231 18.3203C13.8534 17.9221 14.1718 17.5828 14.5528 17.3281L14.7198 17.2236L15.1475 16.9756L15.1505 16.9736L15.3243 16.8809C15.7359 16.6781 16.1899 16.5723 16.6505 16.5723C17.1769 16.5723 17.6946 16.7104 18.1505 16.9736L18.2999 17.0537C18.5293 17.186 18.8018 17.2217 19.0577 17.1533C19.3136 17.0849 19.5323 16.9177 19.6651 16.6885L19.879 16.3086L19.8839 16.3008L19.9288 16.2119C20.0233 16.0026 20.0433 15.7658 19.9835 15.542C19.915 15.2863 19.7477 15.0683 19.5186 14.9355L19.3995 14.8721C19.3898 14.8669 19.3797 14.862 19.3702 14.8564C18.9124 14.5921 18.532 14.2112 18.2686 13.7529C18.0053 13.2946 17.8681 12.7746 17.8702 12.2461V11.75C17.8688 11.2228 18.0059 10.7042 18.2686 10.2471C18.3758 10.0606 18.5033 9.88765 18.6466 9.72949C19.2341 9.90406 19.8558 10 20.5001 10C20.8249 10 21.144 9.97473 21.4561 9.92871C21.2126 10.2693 20.9013 10.5607 20.5333 10.7764L20.5343 10.7773L20.3702 10.876C20.2176 10.9641 20.0908 11.0914 20.003 11.2441C19.9153 11.3968 19.8695 11.57 19.8702 11.7461V12.2539C19.8695 12.43 19.9153 12.6032 20.003 12.7559C20.0894 12.9062 20.214 13.0312 20.3634 13.1191L20.4903 13.1875L20.5216 13.2051L20.7706 13.3662C21.3298 13.7689 21.7365 14.3539 21.9161 15.0254C22.1205 15.7898 22.0131 16.6035 21.6202 17.29L21.6212 17.291L21.4014 17.6816L21.3956 17.6914C20.9972 18.379 20.342 18.8807 19.5743 19.0859C18.817 19.2883 18.0116 19.1847 17.3292 18.8008V18.8027L17.1798 18.7227C17.17 18.7175 17.16 18.7116 17.1505 18.7061C16.9986 18.6184 16.8258 18.5723 16.6505 18.5723C16.4751 18.5723 16.3024 18.6184 16.1505 18.7061L16.1495 18.7051L15.7227 18.9541L15.6114 19.0283C15.5077 19.1078 15.4204 19.2075 15.3546 19.3213C15.2668 19.4731 15.22 19.646 15.2198 19.8213V20C15.2198 20.7955 14.9043 21.5585 14.3419 22.1211C13.7793 22.6836 13.0154 23 12.2198 23H11.7803C10.9848 23 10.2208 22.6837 9.65828 22.1211C9.09594 21.5585 8.78035 20.7954 8.78035 20V19.8213L8.77156 19.6904C8.75435 19.5609 8.71141 19.4352 8.64558 19.3213C8.57971 19.2075 8.49243 19.1078 8.38874 19.0283L8.27742 18.9541L7.84968 18.7051C7.69776 18.6175 7.52506 18.5723 7.34968 18.5723C7.21824 18.5723 7.08852 18.5985 6.96785 18.6484L6.84968 18.7061C6.84011 18.7116 6.83013 18.7175 6.82038 18.7227L6.67097 18.8027L6.66999 18.8008C5.98771 19.1844 5.18286 19.2883 4.42585 19.0859C3.75418 18.9063 3.16836 18.4998 2.7657 17.9404L2.60456 17.6914L2.38484 17.3105L2.38386 17.3096C1.98692 16.6214 1.87897 15.8037 2.08406 15.0361C2.28803 14.2733 2.78502 13.6217 3.46589 13.2227L3.62995 13.124L3.73933 13.0508C3.84344 12.9708 3.93128 12.8704 3.99714 12.7559C4.08484 12.6032 4.13065 12.43 4.12995 12.2539V11.7461L4.12117 11.6162C4.10349 11.4873 4.06003 11.3622 3.99421 11.249C3.92841 11.136 3.84152 11.037 3.73835 10.958L3.62995 10.8857L3.57527 10.8516L3.42585 10.752C2.76614 10.351 2.2839 9.71122 2.08406 8.96387C1.87897 8.19633 1.98692 7.37864 2.38386 6.69043L2.38484 6.68848L2.60456 6.30859L2.7657 6.05957C3.16836 5.50016 3.75418 5.09371 4.42585 4.91406C5.1827 4.71172 5.9878 4.81485 6.66999 5.19824L6.67097 5.19727L6.82038 5.27734L6.84968 5.29395L6.96785 5.35156C7.08852 5.4015 7.21824 5.42766 7.34968 5.42773C7.48133 5.42773 7.61164 5.40158 7.73249 5.35156L7.84968 5.29395L8.27742 5.0459L8.38874 4.97168C8.49243 4.89217 8.57971 4.79253 8.64558 4.67871C8.73322 4.52709 8.78004 4.3548 8.78035 4.17969V4C8.78035 3.20456 9.09594 2.44147 9.65828 1.87891C10.2208 1.31634 10.9848 1.00005 11.7803 1H12.2198Z" fill="#D7D8DB"/>
</svg>
